<svg width="161" height="50" viewBox="0 0 161 50" fill="none" xmlns="http://www.w3.org/2000/svg">
<path d="M93.4736 25.1529C89.6934 25.1529 86.1867 25.1529 82.4555 25.1529C83.9599 24.1956 84.4089 22.9158 84.2515 21.3986C84.2179 21.0709 84.0399 20.7535 83.8979 20.4464C83.6967 20.0103 83.4593 19.5923 83.2529 19.1588C82.8684 18.3538 82.4968 17.5409 82.1278 16.7514C82.7729 16.6559 83.2167 17.1591 83.6322 17.897C83.9857 18.5241 84.6385 19.5588 84.9894 19.4943C85.6913 19.3652 86.4422 18.7202 86.8782 18.0854C88.189 16.1682 87.8949 13.2524 86.3648 11.6681C85.8487 11.1314 85.3739 10.7598 84.6075 11.4462C83.947 12.0397 83.2013 11.8668 82.0865 11.0695C82.4504 11.0901 82.6542 11.1107 82.8581 11.1107C83.8954 11.1185 84.6849 10.3599 84.3985 9.37675C84.1276 8.45041 83.6941 7.43634 83.0181 6.79642C81.6556 5.50367 79.6533 6.08424 79.1166 7.875C78.8018 8.92778 78.6934 10.0734 78.6805 11.1778C78.6289 15.0561 78.6444 18.9369 78.6702 22.8152C78.6753 23.5918 78.8327 24.3685 78.923 25.171C77.7929 25.171 76.544 25.171 75.437 25.171C75.5196 24.3427 75.6641 23.5351 75.6692 22.7274C75.6925 18.8492 75.7157 14.9684 75.6589 11.0901C75.6409 9.95217 75.4886 8.7807 75.1609 7.69437C74.6913 6.14617 72.7586 5.59656 71.4968 6.63385C70.9059 7.11896 70.395 7.82597 70.1138 8.53556C69.5177 10.0347 70.1783 10.9533 71.7858 11.0927C71.9871 11.1107 72.1909 11.0953 72.4825 11.0953C71.5381 11.8874 70.5111 12.0371 69.67 11.3868C69.092 10.9404 68.7152 11.0101 68.2224 11.4307C66.1865 13.1673 66.1091 17.5306 68.0934 19.3343C69.0171 20.1729 69.8557 19.9381 70.297 18.6711C70.6066 17.7835 70.924 16.963 71.8916 16.9759C71.5226 17.799 71.1433 18.6402 70.7692 19.4839C70.684 19.6749 70.6402 19.8839 70.5473 20.0723C69.381 22.4307 69.6158 23.5325 71.742 25.2071C68.2869 25.2071 64.9479 25.2123 61.6064 25.1942C61.4206 25.1942 61.2348 24.9878 61.049 24.8769C61.1961 24.7117 61.3096 24.4717 61.4929 24.3917C63.601 23.4809 64.3828 21.7624 64.3932 19.6052C64.4112 16.0753 64.4293 12.5454 64.3674 9.01551C64.3286 6.8635 63.5855 5.05469 61.4309 4.11802C61.2555 4.04319 61.1651 3.76968 61.0361 3.59163C61.2503 3.4781 61.4645 3.26909 61.6812 3.26393C63.2526 3.23039 64.8267 3.25619 66.3981 3.22265C66.94 3.20974 67.1619 3.41101 67.1902 3.93224C67.2161 4.37348 67.2883 4.81213 67.3709 5.51141C68.5707 3.60196 70.1422 2.78141 72.1703 2.7556C74.1468 2.7298 75.7879 3.39553 77.0084 4.85858C78.0199 4.29349 78.9489 3.57099 80.0016 3.22523C85.3971 1.46027 89.8456 4.8818 89.9179 10.8037C89.954 13.6679 89.9334 16.5346 89.9256 19.4014C89.9205 21.6411 90.643 23.4344 92.8388 24.3917C93.053 24.4846 93.1743 24.7814 93.4736 25.1529Z" fill="#264CBE"/>
<path d="M14.0087 4.13108C15.7917 5.04968 17.167 6.35534 18.1398 8.0532C19.11 9.75106 19.5977 11.7199 19.5977 13.9622C19.5977 16.2045 19.1126 18.163 18.1398 19.8376C17.167 21.5123 15.7917 22.8102 14.0087 23.7288C12.2256 24.6474 10.1614 25.1067 7.81327 25.1067H0V2.75318H7.81327C10.1614 2.75318 12.2256 3.21248 14.0087 4.13108ZM13.0952 19.3731C14.3751 18.0907 15.0176 16.2871 15.0176 13.9622C15.0176 11.6373 14.3777 9.81557 13.0952 8.50218C11.8154 7.18879 9.99881 6.53338 7.65329 6.53338H4.48205V21.2955H7.65329C10.0014 21.2929 11.8154 20.653 13.0952 19.3731Z" fill="white"/>
<path d="M39.3193 17.5768H26.3505C26.4563 18.8593 26.9053 19.863 27.6949 20.5881C28.4845 21.3132 29.4573 21.677 30.6081 21.677C32.2724 21.677 33.4568 20.9622 34.1612 19.5327H38.9968C38.4859 21.2409 37.5028 22.6446 36.05 23.7413C34.5973 24.8405 32.8169 25.3901 30.7036 25.3901C28.9954 25.3901 27.4653 25.0108 26.108 24.2522C24.7507 23.4935 23.6954 22.4227 22.9368 21.0345C22.1781 19.6463 21.7988 18.0464 21.7988 16.2299C21.7988 14.3953 22.173 12.7826 22.9187 11.3943C23.667 10.0061 24.712 8.94043 26.0564 8.19213C27.4007 7.44383 28.9489 7.07227 30.6984 7.07227C32.386 7.07227 33.8955 7.43609 35.2295 8.16117C36.5635 8.88882 37.5982 9.9158 38.3362 11.2498C39.0716 12.5839 39.4406 14.1166 39.4406 15.8454C39.4483 16.4905 39.4045 17.0659 39.3193 17.5768ZM34.8037 14.5682C34.7831 13.4147 34.3651 12.491 33.5549 11.7994C32.742 11.1053 31.7512 10.7596 30.5771 10.7596C29.4676 10.7596 28.5335 11.095 27.7749 11.7685C27.0163 12.442 26.5518 13.376 26.3815 14.5707H34.8037V14.5682Z" fill="white"/>
<path d="M50.1101 20.973L54.5921 7.3643H59.3632L52.7988 25.1041H47.3543L40.8235 7.3643H45.6255L50.1101 20.973Z" fill="white"/>
<path d="M95.7541 4.49745C95.2303 3.99429 94.9696 3.37242 94.9696 2.62412C94.9696 1.87583 95.2303 1.25138 95.7541 0.750799C96.2779 0.250213 96.9333 -8.01086e-05 97.7229 -8.01086e-05C98.5124 -8.01086e-05 99.1679 0.250213 99.6917 0.750799C100.215 1.25396 100.476 1.87841 100.476 2.62412C100.476 3.36984 100.215 3.99429 99.6917 4.49745C99.1679 5.00062 98.5124 5.24833 97.7229 5.24833C96.9333 5.25091 96.2779 5.00062 95.7541 4.49745ZM99.9342 7.36421V25.104H95.4522V7.36421H99.9342Z" fill="white"/>
<path d="M119.305 9.10865C120.605 10.4427 121.258 12.3057 121.258 14.6951V25.1016H116.776V15.304C116.776 13.8952 116.425 12.8114 115.721 12.0554C115.016 11.2968 114.056 10.9175 112.838 10.9175C111.6 10.9175 110.622 11.2968 109.907 12.0554C109.192 12.814 108.834 13.8978 108.834 15.304V25.1016H104.352V7.36434H108.834V9.57311C109.432 8.80417 110.193 8.20295 111.122 7.76429C112.051 7.32564 113.071 7.10889 114.18 7.10889C116.296 7.10889 118.004 7.77719 119.305 9.10865Z" fill="white"/>
<path d="M125.436 11.3998C126.15 10.0116 127.128 8.94588 128.367 8.19758C129.606 7.44928 130.981 7.07771 132.498 7.07771C133.652 7.07771 134.751 7.32801 135.796 7.83117C136.841 8.33434 137.674 9.00007 138.294 9.83093V1.40871H142.84V25.104H138.294V22.4772C137.739 23.3545 136.96 24.0563 135.956 24.5905C134.952 25.1246 133.788 25.3904 132.465 25.3904C130.971 25.3904 129.603 25.0059 128.367 24.237C127.128 23.468 126.15 22.3843 125.436 20.9883C124.721 19.5898 124.362 17.9848 124.362 16.1682C124.365 14.3749 124.721 12.7854 125.436 11.3998ZM137.685 13.4305C137.256 12.6512 136.681 12.0526 135.956 11.6372C135.231 11.2217 134.451 11.0127 133.618 11.0127C132.785 11.0127 132.018 11.2166 131.311 11.6217C130.607 12.0268 130.036 12.6203 129.598 13.3995C129.159 14.1788 128.942 15.1026 128.942 16.1708C128.942 17.2391 129.162 18.1706 129.598 18.9731C130.036 19.773 130.612 20.3871 131.327 20.8129C132.041 21.2412 132.805 21.4528 133.615 21.4528C134.449 21.4528 135.226 21.2438 135.953 20.8283C136.678 20.4103 137.254 19.8143 137.682 19.035C138.108 18.2557 138.322 17.3217 138.322 16.2328C138.322 15.1439 138.11 14.2098 137.685 13.4305Z" fill="white"/>
<path d="M150.106 24.606C148.952 24.0822 148.042 23.3726 147.368 22.4772C146.695 21.5819 146.328 20.5884 146.264 19.4995H150.779C150.864 20.1833 151.2 20.7484 151.788 21.1974C152.374 21.6464 153.107 21.8683 153.981 21.8683C154.836 21.8683 155.501 21.698 155.984 21.3574C156.464 21.0168 156.704 20.5781 156.704 20.044C156.704 19.4686 156.41 19.0351 155.824 18.7461C155.236 18.4571 154.304 18.1449 153.022 17.8017C151.698 17.4817 150.614 17.1514 149.773 16.8082C148.929 16.4676 148.204 15.9438 147.595 15.2394C146.986 14.535 146.682 13.5854 146.682 12.3881C146.682 11.4076 146.966 10.5096 147.531 9.6994C148.096 8.88917 148.909 8.24925 149.964 7.77963C151.019 7.31001 152.263 7.0752 153.695 7.0752C155.808 7.0752 157.496 7.60417 158.755 8.65952C160.014 9.71488 160.708 11.1418 160.835 12.9351H156.544C156.479 12.2307 156.185 11.6708 155.664 11.2528C155.14 10.8373 154.441 10.6283 153.566 10.6283C152.753 10.6283 152.129 10.778 151.693 11.0773C151.254 11.3766 151.037 11.7921 151.037 12.3262C151.037 12.9248 151.337 13.379 151.933 13.686C152.531 13.9957 153.46 14.3105 154.719 14.6304C155.999 14.9504 157.057 15.2807 157.888 15.6213C158.722 15.9619 159.441 16.4909 160.05 17.2056C160.659 17.9204 160.974 18.8648 160.995 20.0388C160.995 21.0632 160.711 21.9818 160.146 22.792C159.581 23.6049 158.768 24.237 157.713 24.6963C156.657 25.1556 155.424 25.3853 154.015 25.3853C152.562 25.3904 151.259 25.1298 150.106 24.606Z" fill="white"/>
<path d="M43.1455 37.2266V36.9195C43.1455 36.7002 43.1868 36.5428 43.2719 36.4473C43.3571 36.3518 43.468 36.3054 43.6048 36.3054C43.7441 36.3054 43.8551 36.3544 43.9376 36.4473C44.0202 36.5428 44.0641 36.7002 44.0641 36.9195V39.2625C44.0641 39.4818 44.0228 39.6392 43.9376 39.7347C43.8525 39.8301 43.7415 39.8766 43.6048 39.8766C43.4732 39.8766 43.3648 39.8327 43.2822 39.745C43.1971 39.6573 43.1532 39.5153 43.1455 39.3192C43.1094 38.7051 42.792 38.1555 42.1985 37.6652C41.605 37.1775 40.8258 36.9324 39.8607 36.9324C38.8466 36.9324 38.039 37.193 37.4403 37.7143C36.8417 38.2355 36.5424 38.8522 36.5424 39.5592C36.5424 39.9256 36.625 40.2585 36.7953 40.5552C36.9656 40.8519 37.1849 41.0971 37.4636 41.2829C37.7397 41.4687 38.0545 41.6183 38.4054 41.7318C38.7563 41.8454 39.3034 41.9641 40.0465 42.0879C41.2954 42.2918 42.1572 42.5008 42.6294 42.7124C43.2642 42.9988 43.7441 43.391 44.0692 43.8967C44.3944 44.3999 44.5569 44.996 44.5569 45.6823C44.5569 46.7325 44.1363 47.6305 43.2977 48.3711C42.4591 49.1116 41.3263 49.4806 39.9046 49.4806C38.3048 49.4806 37.0301 48.98 36.0728 47.9814V48.5078C36.0728 48.7271 36.0315 48.8845 35.9463 48.98C35.8638 49.0755 35.7502 49.1219 35.6135 49.1219C35.4819 49.1219 35.3735 49.0729 35.2858 48.98C35.198 48.8845 35.1542 48.7271 35.1542 48.5078V45.9688C35.1542 45.7417 35.1955 45.5817 35.2806 45.4862C35.3632 45.3908 35.4767 45.3443 35.6135 45.3443C35.7451 45.3443 35.8534 45.3882 35.936 45.4759C36.0186 45.5636 36.065 45.7056 36.0728 45.9017C36.1089 46.5726 36.4676 47.1841 37.1513 47.7363C37.8326 48.2885 38.7512 48.5646 39.9046 48.5646C41.058 48.5646 41.9688 48.2756 42.6372 47.7002C43.3055 47.1248 43.6383 46.441 43.6383 45.654C43.6383 45.1714 43.5093 44.7457 43.2564 44.3689C43.001 43.9948 42.6217 43.6955 42.1185 43.4762C41.7676 43.3239 41.0373 43.151 39.9278 42.9627C38.4028 42.7072 37.3036 42.315 36.6327 41.7912C35.9618 41.2648 35.6264 40.5165 35.6264 39.5463C35.6264 38.5838 36.0108 37.7555 36.7824 37.0614C37.5513 36.3673 38.568 36.0216 39.8323 36.0216C41.1122 36.0112 42.2191 36.4163 43.1455 37.2266Z" fill="white"/>
<path d="M54.1341 39.6362H59.127C59.3463 39.6362 59.5037 39.6801 59.5992 39.7678C59.6947 39.8556 59.7411 39.9691 59.7411 40.1084C59.7411 40.24 59.6947 40.351 59.5992 40.4361C59.5037 40.5239 59.3463 40.5677 59.127 40.5677H54.1341V46.6883C54.1341 47.2224 54.3482 47.6663 54.774 48.0249C55.2023 48.381 55.8268 48.5616 56.6525 48.5616C57.2717 48.5616 57.9452 48.4687 58.6677 48.283C59.3902 48.0972 59.9527 47.8882 60.3527 47.6534C60.4997 47.5579 60.6184 47.5089 60.7139 47.5089C60.83 47.5089 60.9332 47.5553 61.021 47.6456C61.1087 47.7359 61.1526 47.8443 61.1526 47.9682C61.1526 48.0791 61.1035 48.1797 61.0107 48.2752C60.7758 48.5152 60.2108 48.7784 59.3076 49.0571C58.4071 49.3383 57.5427 49.4777 56.717 49.4777C55.6436 49.4777 54.7895 49.2274 54.1547 48.7216C53.5199 48.2185 53.2025 47.5398 53.2025 46.6857V40.5652H51.5047C51.2854 40.5652 51.128 40.5213 51.0325 40.4336C50.937 40.3458 50.8906 40.2323 50.8906 40.093C50.8906 39.9614 50.937 39.853 51.0325 39.7653C51.128 39.6775 51.2854 39.6337 51.5047 39.6337H53.2025V36.9191C53.2025 36.6998 53.2464 36.5424 53.3341 36.4469C53.4219 36.3515 53.5303 36.305 53.6619 36.305C53.8012 36.305 53.9147 36.3541 54.0025 36.4469C54.0902 36.5424 54.1341 36.6998 54.1341 36.9191V39.6362Z" fill="white"/>
<path d="M75.3402 49.1164V47.7694C74.0836 48.9074 72.7263 49.4776 71.2684 49.4776C70.3704 49.4776 69.6867 49.2351 69.2222 48.7448C68.6158 48.1023 68.3139 47.354 68.3139 46.4999V40.5651H67.0779C66.8586 40.5651 66.7012 40.5213 66.6057 40.4335C66.5103 40.3458 66.4638 40.2323 66.4638 40.0929C66.4638 39.9613 66.5103 39.853 66.6057 39.7652C66.7012 39.6775 66.8586 39.6336 67.0779 39.6336H69.2351V46.4999C69.2351 47.0986 69.426 47.5914 69.8053 47.9785C70.1847 48.3655 70.6594 48.559 71.2271 48.559C72.7237 48.559 74.0965 47.8727 75.3453 46.4999V40.5651H73.6475C73.4281 40.5651 73.2707 40.5213 73.1753 40.4335C73.0798 40.3458 73.0334 40.2323 73.0334 40.0929C73.0334 39.9613 73.0798 39.853 73.1753 39.7652C73.2707 39.6775 73.4281 39.6336 73.6475 39.6336H76.2639V48.1952H77.0406C77.26 48.1952 77.4173 48.2365 77.5128 48.3216C77.6083 48.4042 77.6547 48.5177 77.6547 48.6545C77.6547 48.7861 77.6083 48.8971 77.5128 48.9822C77.4173 49.0699 77.26 49.1138 77.0406 49.1138H75.3402V49.1164Z" fill="white"/>
<path d="M92.867 35.3768V48.1985H94.0926C94.3197 48.1985 94.4797 48.2398 94.5751 48.3249C94.6706 48.4075 94.7171 48.5211 94.7171 48.6578C94.7171 48.7894 94.6706 48.9004 94.5751 48.9855C94.4797 49.0732 94.3197 49.1171 94.0926 49.1171H91.9355V47.2876C90.8698 48.7481 89.5151 49.4784 87.874 49.4784C87.0431 49.4784 86.2458 49.259 85.482 48.8152C84.7182 48.374 84.117 47.7444 83.6758 46.9264C83.2345 46.1084 83.0126 45.2672 83.0126 44.3977C83.0126 43.5204 83.2345 42.6766 83.6758 41.8638C84.117 41.051 84.7182 40.4188 85.482 39.975C86.2458 39.5311 87.0457 39.3092 87.8869 39.3092C89.4919 39.3092 90.8414 40.0395 91.938 41.4999V36.3109H90.7124C90.4853 36.3109 90.3253 36.267 90.2298 36.1793C90.1344 36.0916 90.0879 35.978 90.0879 35.8387C90.0879 35.7071 90.1344 35.5961 90.2298 35.511C90.3253 35.4232 90.4853 35.3794 90.7124 35.3794H92.867V35.3768ZM91.938 44.4002C91.938 43.2314 91.5432 42.2482 90.7562 41.4432C89.9692 40.6407 89.03 40.2382 87.9411 40.2382C86.847 40.2382 85.9052 40.6407 85.1156 41.4432C84.3286 42.2457 83.9338 43.2314 83.9338 44.4002C83.9338 45.5614 84.3286 46.5445 85.1156 47.3522C85.9026 48.1572 86.8444 48.5623 87.9411 48.5623C89.03 48.5623 89.9667 48.1572 90.7562 47.3522C91.5432 46.5445 91.938 45.5588 91.938 44.4002Z" fill="white"/>
<path d="M105.016 39.6368V48.1983H108.629C108.856 48.1983 109.016 48.2396 109.111 48.3248C109.207 48.4073 109.253 48.5209 109.253 48.6576C109.253 48.7892 109.204 48.9002 109.111 48.9853C109.016 49.0731 108.856 49.1169 108.629 49.1169H100.483C100.263 49.1169 100.106 49.0731 100.013 48.9853C99.9175 48.8976 99.871 48.7892 99.871 48.6576C99.871 48.5183 99.9201 48.4073 100.013 48.3248C100.108 48.2422 100.266 48.1983 100.483 48.1983H104.095V40.5657H101.414C101.195 40.5657 101.037 40.5218 100.937 40.4341C100.836 40.3464 100.79 40.238 100.79 40.1064C100.79 39.967 100.839 39.8561 100.932 39.7658C101.027 39.6781 101.187 39.6342 101.414 39.6342H105.016V39.6368ZM104.985 34.9173V37.2938H103.628V34.9173H104.985Z" fill="white"/>
<path d="M125.84 44.3999C125.84 45.8011 125.336 46.9983 124.335 47.9918C123.331 48.9826 122.121 49.4806 120.705 49.4806C119.275 49.4806 118.057 48.9826 117.059 47.9866C116.06 46.9906 115.56 45.7959 115.56 44.3999C115.56 42.9988 116.06 41.8015 117.059 40.8029C118.057 39.8044 119.275 39.3089 120.705 39.3089C122.121 39.3089 123.329 39.8044 124.335 40.7978C125.336 41.7886 125.84 42.9911 125.84 44.3999ZM124.908 44.3999C124.908 43.2465 124.498 42.266 123.677 41.4558C122.857 40.6455 121.861 40.2404 120.694 40.2404C119.525 40.2404 118.532 40.6481 117.712 41.4609C116.891 42.2737 116.481 43.2543 116.481 44.3999C116.481 45.5379 116.891 46.5158 117.712 47.3338C118.532 48.1518 119.528 48.5594 120.694 48.5594C121.863 48.5594 122.857 48.1518 123.677 47.3389C124.498 46.5261 124.908 45.5456 124.908 44.3999Z" fill="white"/>
</svg>
